<svg xmlns="http://www.w3.org/2000/svg" viewBox="0 0 427.71 367.12"><defs><style>.cls-1{fill:#f16c9a;}.cls-2{fill:#2979bc;}</style></defs><title>complete_living_logo</title><g id="Layer_2" data-name="Layer 2"><g id="Layer_1-2" data-name="Layer 1"><path class="cls-1" d="M385.18,169.81h0s11.06-9.48,12.88-24.08.09-31.75-8.52-39.25-14.4-6.36-24.13-6.36-12.18-11.23-15-14.91c-2.52-3.27-8.32-7.24-10.86-12.35.71,6.24,1,15.21-1.26,23.28-3.94,13.86-8,30.89-4.26,39.63,2.52,6,3.8,19.7,4.74,29.75.37,4,.71,7.56,1,9.86a63.17,63.17,0,0,0,19.6,5C367.72,180.7,375.42,177.52,385.18,169.81Z"/><path class="cls-1" d="M37.08,219.14c-7.38-3.26-19.17-10.63-24.84-20.09,7.18,19,15.89,39.72,25.92,46.82L71.79,263C71,262.22,63.88,231,37.08,219.14Z"/><path class="cls-1" d="M338.89,174.93l0,0c-.32-2.32-.63-5.66-1-9.38-.93-10-2.2-23.68-4.68-29.51-3.79-8.92,0-25.3,4.24-40.16,2.78-9.79,1.64-21,.71-26.78-1.84-6.6-4.77-18.27-12.28-27.16-7-8.44-11.68-10.85-21.29-14.91-13.39-5.33-28.16-16.78-34.08-21s-19.32-11-51-.39S179.5,18.93,164,17.51c-14-1.42-45,8.22-63.58,23.37-4,3.55-20.24,16.39-20.44,16.54s-26.39,17.21-41,43.79C24.83,126.83,6.29,176.49,10.47,193c3.12,12.27,18.65,20.87,27,25.49a33.54,33.54,0,0,1,5.67,3.5l.15.14,0,.21-3.47,19.57.81.53L54.3,229.06s66.88,50.56,95.43,67.09c13.91,8.06,55.26,41.57,79.46,38.21l-15-9.75s1.61-9.12-4.47-15.2-8.93-7-15.22-11.87c-9-7-5.08-20.64-10.74-26.24-5.83-5.79-20.92-5.88-27.29-1.75-4.14,2.4-12.16-4.5-19.47-15.15S106.35,200,91.63,195c-11.42-4.8-34.65-11.88-35.56-11.88,0,0-2.44-6.83,14.91-15.89s36.51-29.14,42.59-42.52,7.61-16.74,11.56-18.26,16.43,5.39,28,2.74a44.81,44.81,0,0,0,25.55-17.34c4.57-6.7,8.83-18.26,22.21-17S234,80.82,245,91.56,260,106.4,271,112.49c11.36,6.25,15.82,10.62,19.78,16.1S303.12,144.5,301,161.24s6.7,34.38,7.31,43.81-2.44,21.3-3.35,28.6-3.65,27.08-.91,39.86,5.46,18.35,5.47,35-.68,45.37,16.63,39.27c6.68-2.48,11-4.48,12-9.46,2.16-8.09-9-17.18-10.49-21.75s-2-16.89-.76-22.36,4.56-24,4.86-35.91,1.83-23.73,1.22-40.16,4.57-30.28,5.17-33.7S339.49,179.5,338.89,174.93Z"/><path class="cls-1" d="M16.84,150.89c5.64-17.13,13.84-36.32,21.41-50.06C46.92,85.07,59.59,72.66,68.6,65.08c-3.72,2.6-6.78,4.67-8.58,5.79C53.52,75,15.62,96.1,7.08,108c-11.31,15.77-7.94,51.55,2.2,82.62C8.38,182.52,11,168.63,16.84,150.89Z"/><path class="cls-1" d="M424.41,223.94c-2.3-2.71-6.73-6.95-11.7-7-8.9-.62-11.38-1.59-12.88-6.85-1.15-4-9.42-31.62-14.23-39.64-9.35,7.37-17.19,10.71-25.2,10.71h-.56c2.29,4,13,22.4,23,32.39,11.26,11.26,19.59,29.68,21.15,31.06,3.83,3.39,11-.92,18.74-4S427.66,227.76,424.41,223.94Z"/><path class="cls-2" d="M301,209s5.21-19.8,5.66-27.08-1.38-16.4-1.38-18.44c0-1.71,5-11.62,5.68-14.88.13-.64-1.39-1.1-2-.56s-5.7,10.67-6.74,10.07-1.08-13.17-2.95-18.83c-.76-2.3-2.62-3.17-2.71-1-.3,7.69.63,13.07,0,13.25s-3.72-8.22-6.93-12.79c-1.12-1.27-2.16-.15-1.66,2,1.13,4.84,6.42,16.52,5.95,17.13s-4-4.25-6.69-5.51c-.5-.24-1.47-.1-1.41.71s5,6.29,6.35,10,2.26,11.25,5.06,17.88c1.12,2.58-4.84,16.61-6.87,18.91a36.83,36.83,0,0,0-11.67-.64c-2.7-5.13-21.1-89.05-24.45-93.85-2.38-3.94-11.66-14.82-11.9-17.59-1-5.1-3.66-21-3.34-23.13.28-1.78-2.11-2.62-2.94-.5-1.48,3.73.16,14.42-.67,16.23-1.87,3.91-10.23-12.68-12.24-19.51-1.34-4.53-3.56-2.45-3.34.66s2.5,9.18,2.5,9.18-2.68-1.15-6.54-5.92-4.25-1-1.75,3.14c.93,2.07,12,13.17,11.71,14.84-.2,1.3-5-1.2-7.76-1.71s-2.39,1.56-2.39,1.56,12.12,8,13.52,9.35,14.62,13.93,15.52,20.53c1,7,.69,34.61,3.47,47.59,6,16.12,7.79,48.4,7.79,48.4s-10.75,16.41,2.78,35.41c0,0,12,78.62-85.85,75.84-4.64-.74-5.19-1.3-8-4.45s-10.39-14.46-27.45-14.09-28,15.84-34.26-13c-3-13.65-25.91-42.66-20.25-48.41,3.52-4.26,17.06-3.89,23-5s27.82-11.68,41.91-27.26,18.91-13.91,21-11.13,9.64,7.42,13.35,2.41,8.16-8.71,15.39-10.19,12.05-3.34,15.76-8.16,8.16-13.35,3.15-12.61-43.2,10-52.47,10.38S90.28,207.92,85.83,209c0,0,22.25-45.61,27.62-49.69s18.18,4.82,20.77-4.82,3-13.17,13.54-19.84,12.61-13.91,12.79-16.69,4-9.57.17-7.52c0,0-42.79,23.53-45.71,25.89s-93.74,87.8-98.14,99.41-2.19,19.26,0,24.29S59.92,331.65,85,342.54s43.47,19.82,57.22,22.37,21.74,1.92,30.37,0,48.27-.46,56.9,1.69,15.66-2.65,20.77-8.08,21.1-17.58,27.17-19.82,19.82-9.59,22.38-17.9-1.28-22.06-7.67-35.8,1.38-30.64,6.69-33.69c5-2.87,14.55-6.95,11.85-19.06C307.82,219.64,304.16,212.84,301,209Zm-248,41.42c-1.06-.05-7.91-3.45-6.67-7.53s5.91-6.65,6.67-6.79S54,250.49,52.94,250.43Z"/></g></g></svg>